<svg width="24" height="24" viewBox="0 0 24 24" fill="none" xmlns="http://www.w3.org/2000/svg">
<g id="Ic_chechlist">
<path id="Shape" fill-rule="evenodd" clip-rule="evenodd" d="M2.66602 12C2.66602 6.8453 6.84469 2.66663 11.9993 2.66663C14.4747 2.66663 16.8487 3.64996 18.599 5.4003C20.3494 7.15064 21.3327 9.52461 21.3327 12C21.3327 17.1546 17.154 21.3333 11.9993 21.3333C6.84469 21.3333 2.66602 17.1546 2.66602 12ZM11.728 15.4627L16.3946 10.796C16.7606 10.43 16.7606 9.83663 16.3946 9.47065C16.0287 9.10467 15.4353 9.10467 15.0693 9.47065L11.0653 13.484L8.92797 11.3373C8.69122 11.1006 8.34615 11.0081 8.02275 11.0948C7.69934 11.1814 7.44673 11.434 7.36008 11.7574C7.27342 12.0808 7.36588 12.4259 7.60263 12.6627L10.4026 15.4627C10.5779 15.6393 10.8164 15.7387 11.0653 15.7387C11.3142 15.7387 11.5527 15.6393 11.728 15.4627Z" fill="#23262F"/>
</g>
</svg>
